<svg id="Flat" enable-background="new 0 0 512 512" height="512" viewBox="0 0 512 512" width="512" xmlns="http://www.w3.org/2000/svg"><g><path d="m338.5 504.5h-165l-90-353.452 90-143.548h165l90 143.548z" fill="#818181"/></g><g><path d="m338.5 7.5h-82.5v497h82.5l90-353.452z" fill="#6d6d6d"/></g><g><path d="m306 198.5h-42.5v-42.5c0-4.143-3.358-7.5-7.501-7.5-4.142 0-7.5 3.357-7.5 7.5v42.5h-42.499c-4.142 0-7.5 3.357-7.5 7.5s3.358 7.5 7.5 7.5h42.5v142.5c0 4.143 3.358 7.5 7.5 7.5s7.501-3.357 7.501-7.5v-142.5h42.499c4.143 0 7.5-3.357 7.5-7.5s-3.357-7.5-7.5-7.5z" fill="#fafafa"/></g><g><path d="m306 198.5h-42.5v-42.5c0-4.143-3.358-7.5-7.5-7.5v215c4.142 0 7.5-3.357 7.5-7.5v-142.5h42.5c4.143 0 7.5-3.357 7.5-7.5s-3.357-7.5-7.5-7.5z" fill="#e6e6e6"/></g></svg>